<svg width="240" height="161" viewBox="0 0 240 161" fill="none" xmlns="http://www.w3.org/2000/svg">
<rect x="-0.5" y="-0.5" width="241" height="161" fill="#ABBBCC"/>
<path d="M136 56V61.3333H130.667V56H109.333V61.3333H104V56H98.6667V104H104V98.6667H109.333V104H130.667V98.6667H136V104H141.333V56H136ZM109.333 93.3333H104V88H109.333V93.3333ZM109.333 82.6667H104V77.3333H109.333V82.6667ZM109.333 72H104V66.6667H109.333V72ZM136 93.3333H130.667V88H136V93.3333ZM136 82.6667H130.667V77.3333H136V82.6667ZM136 72H130.667V66.6667H136V72Z" fill="#0C1932" fill-opacity="0.1"/>
<rect x="-0.5" y="-0.5" width="241" height="161" stroke="#ABBBCC"/>
</svg>
